<svg width="66" height="64" viewBox="0 0 66 64" fill="none" xmlns="http://www.w3.org/2000/svg">
<g clip-path="url(#clip0_698_783)">
<path d="M59.1412 0H6.06426C2.71413 0 -0.00167847 2.71581 -0.00167847 6.06593V57.6264C-0.00167847 60.9765 2.71413 63.6923 6.06426 63.6923H59.1412C62.4913 63.6923 65.2071 60.9765 65.2071 57.6264V6.06593C65.2071 2.71581 62.4913 0 59.1412 0Z" fill="#FF7854"/>
<path d="M37.4065 20.6613C37.4065 20.9855 37.3753 21.3058 37.3167 21.6144C36.8714 23.9621 34.8089 25.7394 32.3284 25.7394C29.8479 25.7394 27.7854 23.9621 27.3401 21.6144C27.2815 21.3058 27.2503 20.9855 27.2503 20.6613C27.2503 17.8566 29.5237 15.5832 32.3284 15.5832C35.1331 15.5832 37.4065 17.8566 37.4065 20.6613Z" fill="white"/>
<path d="M36.8206 20.6613C36.8167 21.2238 36.7229 21.7433 36.5198 22.2863C36.5081 22.3136 36.4495 22.4582 36.469 22.4152C36.4886 22.3683 36.4339 22.4933 36.4222 22.5128C36.3675 22.6339 36.305 22.7511 36.2425 22.8644C36.1878 22.9621 36.1253 23.0597 36.0628 23.1574C36.0276 23.2082 35.9964 23.2589 35.9612 23.3097C35.9417 23.3371 35.8284 23.4855 35.8948 23.3996C35.7425 23.591 35.5784 23.7707 35.4026 23.9386C35.3206 24.0167 35.2347 24.091 35.1487 24.1652C35.1253 24.1847 34.9964 24.2824 35.0823 24.2199C35.0276 24.2628 34.969 24.3019 34.9143 24.341C34.719 24.4738 34.5159 24.5949 34.305 24.7003C34.2503 24.7277 34.1956 24.755 34.137 24.7785C34.1058 24.7941 34.0745 24.8058 34.0393 24.8214C34.0472 24.8175 34.1214 24.7902 34.055 24.8136C33.9378 24.8605 33.8206 24.9035 33.7034 24.9386C33.4612 25.0128 33.219 25.0714 32.969 25.1105C32.9534 25.1144 32.8401 25.13 32.9104 25.1183C32.9768 25.1105 32.887 25.1222 32.8792 25.1222C32.8167 25.13 32.7503 25.1339 32.6878 25.1378C32.5589 25.1457 32.4261 25.1496 32.2972 25.1496C32.1761 25.1496 32.055 25.1457 31.9339 25.1339C31.8714 25.13 31.805 25.1222 31.7425 25.1144C31.6487 25.1027 31.8284 25.13 31.7347 25.1144C31.6995 25.1105 31.6643 25.1027 31.6253 25.0988C31.3753 25.0558 31.1331 24.9972 30.8948 24.9191C30.7854 24.8839 30.6761 24.841 30.5706 24.8019C30.6761 24.8449 30.5159 24.7785 30.4925 24.7667C30.43 24.7355 30.3636 24.7082 30.3011 24.673C30.0823 24.5597 29.8753 24.4347 29.6722 24.2902C29.6487 24.2746 29.5159 24.173 29.6018 24.2394C29.5589 24.2082 29.5198 24.173 29.4808 24.1417C29.3792 24.0597 29.2854 23.9699 29.1917 23.88C29.1097 23.8019 29.0315 23.7199 28.9573 23.6339C28.9183 23.5871 28.8753 23.5441 28.8362 23.4972C28.8167 23.4738 28.719 23.3488 28.7815 23.4308C28.6331 23.2355 28.5003 23.0285 28.3831 22.8175C28.3245 22.7082 28.2698 22.5988 28.2151 22.4894C28.1995 22.4582 28.1526 22.3449 28.1878 22.4347C28.1604 22.3683 28.137 22.3019 28.1097 22.2355C27.9143 21.6925 27.8245 21.173 27.8284 20.6066C27.8284 20.4816 27.8362 20.3527 27.8479 20.2277C27.8518 20.173 27.8597 20.1222 27.8636 20.0675C27.8675 20.0441 27.8831 19.9542 27.8636 20.0636C27.8675 20.0285 27.8753 19.9933 27.8792 19.9582C27.9222 19.716 27.9808 19.4777 28.055 19.2433C28.0901 19.1378 28.1292 19.0324 28.1722 18.9269C28.2034 18.841 28.137 19.005 28.1722 18.923C28.1839 18.8996 28.1917 18.8761 28.2034 18.8527C28.2308 18.7902 28.262 18.7277 28.2933 18.6652C28.4026 18.4503 28.5237 18.2472 28.6604 18.0519C28.6878 18.0089 28.719 17.9699 28.7503 17.9269C28.8167 17.8371 28.7659 17.9074 28.7503 17.923C28.7659 17.9035 28.7815 17.8839 28.7972 17.8644C28.8792 17.7667 28.9612 17.6691 29.0511 17.5792C29.2151 17.4074 29.3909 17.2472 29.5784 17.0988C29.5003 17.1613 29.594 17.0871 29.6214 17.0675C29.6683 17.0324 29.719 16.9972 29.7659 16.966C29.8714 16.8957 29.9808 16.8253 30.0901 16.7628C30.1878 16.7082 30.2854 16.6535 30.387 16.6066C30.4417 16.5792 30.4964 16.5558 30.5511 16.5285C30.5589 16.5246 30.637 16.4933 30.5745 16.5167C30.5159 16.5402 30.6136 16.5011 30.6253 16.4972C30.8518 16.4113 31.0862 16.3371 31.3245 16.2824C31.4456 16.255 31.5667 16.2316 31.6878 16.2121C31.7581 16.2003 31.6722 16.2121 31.6643 16.216C31.6917 16.2121 31.719 16.2082 31.7425 16.2082C31.8128 16.2003 31.887 16.1925 31.9573 16.1886C32.2112 16.173 32.4651 16.173 32.719 16.1925C32.7815 16.1964 32.844 16.2042 32.9065 16.2121C33.0237 16.2238 32.8479 16.2003 32.9612 16.2199C33.0901 16.2433 33.2229 16.2667 33.3518 16.298C33.5901 16.3566 33.8206 16.4308 34.0472 16.5207C34.1097 16.5441 34.0354 16.5167 34.0276 16.5128C34.0589 16.5246 34.0901 16.5402 34.1214 16.5558C34.1683 16.5753 34.2151 16.5988 34.262 16.6222C34.3753 16.6808 34.4886 16.7394 34.6018 16.8058C34.6956 16.8605 34.7893 16.923 34.8831 16.9855C34.9339 17.0207 34.9808 17.0558 35.0276 17.091C35.0472 17.1066 35.0706 17.1222 35.0901 17.1378C35.0237 17.0871 35.0745 17.1261 35.1136 17.1574C35.2972 17.3097 35.469 17.4699 35.6331 17.6457C35.7073 17.7277 35.7776 17.8136 35.8518 17.8957C35.8558 17.8996 35.9104 17.966 35.8675 17.9152C35.8245 17.8605 35.8909 17.9464 35.8987 17.9582C35.9339 18.005 35.969 18.0558 36.0042 18.1027C36.1409 18.3019 36.262 18.5089 36.3675 18.7238C36.3948 18.7785 36.4183 18.8332 36.4456 18.8878C36.4573 18.9113 36.4651 18.9347 36.4768 18.9582C36.4339 18.8566 36.469 18.9425 36.4768 18.9621C36.5198 19.0753 36.5628 19.1886 36.5979 19.3058C36.6722 19.5402 36.7229 19.7824 36.7659 20.0246C36.7698 20.048 36.7815 20.1378 36.7659 20.0285C36.7698 20.0558 36.7737 20.0832 36.7737 20.1066C36.7815 20.1691 36.7854 20.2316 36.7893 20.2941C36.8167 20.4074 36.8206 20.5324 36.8206 20.6613C36.8206 20.966 37.0901 21.2628 37.4065 21.2472C37.7229 21.2316 37.9925 20.9894 37.9925 20.6613C37.9808 18.3371 36.5472 16.2589 34.4026 15.3917C32.2854 14.5363 29.7542 15.1183 28.1995 16.7824C26.5393 18.5636 26.1956 21.2707 27.3753 23.4074C27.9143 24.3839 28.762 25.2082 29.762 25.7082C30.8518 26.255 32.0589 26.4269 33.2581 26.2433C35.5198 25.8996 37.4222 24.0597 37.8714 21.8214C37.9495 21.4386 37.9886 21.048 37.9925 20.6574C37.9964 20.3527 37.7229 20.0558 37.4065 20.0714C37.0862 20.091 36.8245 20.3332 36.8206 20.6613Z" fill="white"/>
<path d="M19.7581 32.3019C19.8987 31.3918 20.1292 30.5011 20.4495 29.6378C20.4886 29.5324 20.5315 29.4269 20.5706 29.3214C20.5901 29.2707 20.6097 29.216 20.6331 29.1652C20.5432 29.3527 20.6292 29.1808 20.6448 29.1457C20.7347 28.9386 20.8323 28.7355 20.93 28.5324C21.1292 28.13 21.3518 27.7394 21.5901 27.3605C21.6995 27.1886 21.8128 27.0168 21.93 26.8488C21.9925 26.7589 22.0589 26.6652 22.1253 26.5753C22.1565 26.5285 22.1917 26.4855 22.2268 26.4425C22.2503 26.4113 22.2698 26.3839 22.2932 26.3527C22.2268 26.4386 22.2229 26.4464 22.2737 26.38C22.5393 26.0441 22.8167 25.7199 23.1097 25.4113C23.4182 25.0871 23.7386 24.7824 24.0784 24.4894C24.2464 24.3449 24.4143 24.1886 24.594 24.0636C24.4182 24.1847 24.6565 24.0168 24.7034 23.9816C24.8089 23.9035 24.9143 23.8293 25.0198 23.755C25.4339 23.466 25.8636 23.2003 26.305 22.9621C26.5198 22.8449 26.7347 22.7355 26.9573 22.63C27.0745 22.5753 27.1956 22.5207 27.3167 22.466C27.3518 22.4503 27.5276 22.3683 27.3362 22.4543C27.4065 22.423 27.4768 22.3957 27.5472 22.3683C27.9261 22.216 28.2347 21.841 28.094 21.4074C27.9768 21.0402 27.5393 20.7003 27.1331 20.8605C25.3206 21.5871 23.6682 22.6457 22.2815 24.0207C20.9104 25.3839 19.8479 27.0128 19.1097 28.798C18.7034 29.7902 18.4182 30.8253 18.2542 31.8839C18.1917 32.2863 18.3557 32.7433 18.8011 32.8449C19.1722 32.9347 19.6917 32.7355 19.7581 32.3019Z" fill="white"/>
<path d="M37.3597 45.8058C36.469 46.1808 35.5433 46.4621 34.594 46.6378C34.4808 46.6574 34.3636 46.6808 34.2503 46.6964C34.2034 46.7043 34.1565 46.7121 34.1097 46.716C34.0862 46.7199 33.8558 46.7472 34.0393 46.7277C33.7933 46.7589 33.5472 46.7824 33.2972 46.8019C32.8167 46.8371 32.3362 46.8449 31.8558 46.8293C31.6331 46.8214 31.4104 46.8097 31.1917 46.7902C31.0823 46.7824 30.9729 46.7707 30.8636 46.7589C30.7972 46.7511 30.7308 46.7433 30.6683 46.7355C30.4964 46.716 30.8011 46.755 30.6136 46.7277C30.1604 46.6613 29.7151 46.5753 29.2737 46.466C28.8597 46.3644 28.4456 46.2394 28.0433 46.0949C27.844 46.0246 27.6448 45.9464 27.4456 45.8683C27.2464 45.7902 27.594 45.9347 27.3987 45.8488C27.3597 45.8332 27.3206 45.8136 27.2815 45.798C27.1643 45.7472 27.0511 45.6925 26.9339 45.6378C26.4964 45.4308 26.0706 45.1964 25.6604 44.9425C25.4456 44.8097 25.2347 44.673 25.0315 44.5285C24.93 44.4582 24.8284 44.3839 24.7268 44.3097C24.6917 44.2863 24.6604 44.2589 24.6253 44.2355C24.5901 44.2121 24.5589 44.1847 24.5237 44.1613C24.5979 44.2199 24.6018 44.2199 24.5315 44.1691C24.3636 44.0363 24.2034 43.9386 23.9808 43.9386C23.7893 43.9386 23.5589 44.0246 23.43 44.1691C23.1722 44.4503 23.0862 45.005 23.43 45.2746C24.9339 46.4582 26.6331 47.3566 28.4847 47.8761C30.4534 48.4269 32.512 48.5246 34.5276 48.2277C35.6448 48.0636 36.7386 47.755 37.7776 47.3175C37.9729 47.2355 38.1331 47.1496 38.2464 46.9582C38.344 46.7902 38.387 46.5441 38.3245 46.3566C38.2073 45.9894 37.7659 45.6339 37.3597 45.8058Z" fill="white"/>
<path d="M40.0979 24.091C40.7776 24.6261 41.4065 25.2277 41.9729 25.88C42.1058 26.0363 42.2347 26.1925 42.3636 26.3527C42.4886 26.5089 42.2659 26.2199 42.3831 26.38C42.4104 26.4191 42.4417 26.4582 42.469 26.4972C42.5433 26.5988 42.6175 26.7003 42.6917 26.8058C42.9378 27.1574 43.1683 27.5207 43.3792 27.8957C43.594 28.2707 43.7893 28.6574 43.9651 29.0519C43.9808 29.091 44.1175 29.38 44.0276 29.1925C44.0706 29.2824 44.1018 29.3761 44.137 29.466C44.2229 29.6886 44.305 29.9113 44.3792 30.1378C44.5159 30.5558 44.6331 30.9816 44.7268 31.4113C44.7737 31.6183 44.8128 31.8253 44.8518 32.0363C44.8714 32.1457 44.887 32.255 44.9065 32.3683C44.9065 32.3761 44.9339 32.5753 44.9183 32.4464C44.9026 32.3253 44.9339 32.5636 44.9339 32.5871C44.9925 33.1027 45.0237 33.6183 45.0237 34.1378C45.0237 34.4386 45.012 34.7433 44.9925 35.0441C44.9808 35.1925 44.969 35.341 44.9534 35.4894C44.9456 35.5636 44.9378 35.6378 44.93 35.7121C44.9261 35.7628 44.9183 35.8097 44.9104 35.8605C44.9222 35.7746 44.9222 35.7785 44.9065 35.8722C44.8753 36.091 44.8714 36.2785 44.9847 36.4738C45.0784 36.6339 45.2659 36.7902 45.4534 36.8332C45.8206 36.9191 46.3518 36.7199 46.4143 36.2863C46.7112 34.2043 46.594 32.0871 45.9925 30.0675C45.4495 28.255 44.5472 26.5832 43.3558 25.1144C42.719 24.3293 41.9925 23.6144 41.1995 22.9894C41.0315 22.8566 40.8714 22.7589 40.6487 22.7589C40.4573 22.7589 40.2268 22.8449 40.0979 22.9894C39.8401 23.2668 39.7542 23.8175 40.0979 24.091Z" fill="white"/>
<path d="M48.3987 43.4152C46.9964 45.8449 43.8909 46.6769 41.4612 45.2746C41.176 45.1105 40.9143 44.923 40.676 44.7199C38.8675 43.1574 38.3635 40.4855 39.6018 38.341C40.8401 36.1964 43.4104 35.2941 45.6643 36.0832C45.9612 36.1847 46.2542 36.3214 46.5354 36.4816C48.969 37.88 49.801 40.9855 48.3987 43.4152Z" fill="white"/>
<path d="M47.8909 43.1183C47.8323 43.2199 47.7698 43.3214 47.7034 43.423C47.6682 43.4738 47.6331 43.5285 47.594 43.5793C47.5784 43.6027 47.5628 43.6222 47.5471 43.6457C47.4885 43.7238 47.6331 43.5441 47.5237 43.6769C47.3714 43.8605 47.2112 44.0363 47.0354 44.2003C46.9534 44.2785 46.8635 44.3488 46.7776 44.423C46.6917 44.4933 46.8206 44.3957 46.7307 44.4582C46.676 44.4972 46.6175 44.5402 46.5628 44.5793C46.3635 44.716 46.1526 44.8371 45.9378 44.9425C45.8909 44.966 45.844 44.9855 45.7971 45.0089C45.7893 45.0128 45.7112 45.048 45.7737 45.0207C45.8401 44.9933 45.7385 45.0324 45.7268 45.0402C45.6135 45.0832 45.5042 45.1261 45.387 45.1613C45.1682 45.2316 44.9417 45.2863 44.7151 45.3253C44.6839 45.3293 44.5315 45.3527 44.5901 45.3449C44.6526 45.3371 44.512 45.3527 44.4885 45.3566C44.3596 45.3683 44.2307 45.3761 44.1018 45.38C43.8675 45.3839 43.637 45.3644 43.4026 45.3449C43.3323 45.341 43.4221 45.3488 43.43 45.3488C43.3948 45.3449 43.3596 45.3371 43.3284 45.3332C43.2776 45.3253 43.2268 45.3136 43.1721 45.3058C43.051 45.2824 42.9339 45.255 42.8128 45.2199C42.6917 45.1886 42.5745 45.1496 42.4573 45.1066C42.4065 45.0871 42.3557 45.0675 42.305 45.0519C42.301 45.0519 42.219 45.0168 42.2737 45.0402C42.3401 45.0675 42.2073 45.0089 42.1956 45.005C41.6917 44.7746 41.262 44.4894 40.8792 44.1222C40.7854 44.0285 40.6917 43.9347 40.6018 43.8332C40.5628 43.7902 40.5276 43.7472 40.4925 43.7043C40.469 43.6769 40.4456 43.6457 40.4221 43.6144C40.4612 43.6613 40.43 43.6261 40.4104 43.5988C40.262 43.3918 40.1292 43.1808 40.012 42.9582C39.9573 42.8527 39.9026 42.7433 39.8557 42.63C39.8987 42.7238 39.8284 42.5636 39.8206 42.5363C39.7932 42.466 39.7698 42.3957 39.7464 42.3253C39.6682 42.0871 39.6057 41.8449 39.5628 41.5988C39.555 41.5441 39.5432 41.4894 39.5354 41.4347C39.551 41.5441 39.5315 41.3722 39.5276 41.341C39.5159 41.2121 39.5081 41.0832 39.5081 40.9503C39.5081 40.8293 39.5081 40.7082 39.5159 40.5871C39.5198 40.5207 39.5237 40.4582 39.5315 40.3918C39.5354 40.3644 39.5393 40.3371 39.5393 40.3058C39.551 40.1964 39.5354 40.3332 39.5432 40.2668C39.5862 40.0128 39.6409 39.7628 39.719 39.5168C39.7581 39.3957 39.801 39.2785 39.844 39.1613C39.8675 39.0988 39.844 39.1535 39.8401 39.1652C39.8557 39.13 39.8714 39.0949 39.887 39.0597C39.9143 38.9972 39.9456 38.9347 39.9768 38.8722C40.0979 38.63 40.2425 38.3996 40.3987 38.1847C40.4143 38.1613 40.4339 38.1378 40.4495 38.1183C40.4417 38.1261 40.4026 38.1769 40.4456 38.1261C40.4846 38.0753 40.5276 38.0246 40.5706 37.9777C40.6565 37.88 40.7425 37.7863 40.8323 37.6964C40.9182 37.6144 41.0042 37.5324 41.094 37.4543C41.1409 37.4113 41.1917 37.3722 41.2425 37.3332C41.2464 37.3293 41.3167 37.2746 41.2698 37.3136C41.219 37.3527 41.344 37.2589 41.3401 37.2628C41.5354 37.1222 41.7464 36.9972 41.9612 36.8839C42.0628 36.8293 42.1682 36.7824 42.2776 36.7355C42.1839 36.7785 42.3323 36.716 42.3596 36.7043C42.4182 36.6808 42.4768 36.6613 42.5354 36.6418C42.7698 36.5636 43.012 36.5011 43.2581 36.4543C43.3089 36.4464 43.3635 36.4347 43.4182 36.4269C43.305 36.4464 43.4651 36.423 43.5003 36.4191C43.6253 36.4074 43.7503 36.3996 43.8753 36.3957C44.1175 36.3878 44.3596 36.4035 44.6018 36.4308C44.4885 36.4191 44.6526 36.4386 44.6878 36.4464C44.7503 36.4582 44.8128 36.4699 44.8753 36.4816C45.0003 36.5089 45.1253 36.5402 45.2464 36.5753C45.5159 36.6535 45.7425 36.7394 45.969 36.8527C46.2112 36.9738 46.4417 37.1105 46.6604 37.2668C46.6917 37.2863 46.719 37.3097 46.7464 37.3293C46.7503 37.3332 46.8206 37.3878 46.7737 37.3488C46.7268 37.3097 46.7932 37.3683 46.7971 37.3683C46.8245 37.3918 46.8518 37.4152 46.8792 37.4386C46.9729 37.5207 47.0667 37.6027 47.1526 37.6886C47.2346 37.7707 47.3128 37.8527 47.387 37.9386C47.426 37.9855 47.469 38.0324 47.5042 38.0793C47.5198 38.0988 47.5354 38.1183 47.555 38.1418C47.6135 38.2121 47.5042 38.0753 47.5589 38.1457C47.6956 38.3332 47.8245 38.5285 47.9378 38.7316C47.9964 38.8371 48.051 38.9425 48.1018 39.0519C48.1175 39.0871 48.1643 39.1925 48.1253 39.0988C48.1526 39.1613 48.176 39.2277 48.1995 39.2902C48.2776 39.505 48.344 39.7277 48.3948 39.9543C48.4182 40.0636 48.4378 40.173 48.4573 40.2824C48.4768 40.3957 48.4612 40.3019 48.4573 40.2785C48.4612 40.3058 48.4651 40.3293 48.4651 40.3566C48.4729 40.423 48.4768 40.4933 48.4846 40.5597C48.5003 40.7902 48.5003 41.0246 48.4807 41.255C48.4768 41.3136 48.469 41.3761 48.4651 41.4347C48.4612 41.4621 48.4573 41.4855 48.4573 41.5128C48.4573 41.505 48.4729 41.4191 48.4612 41.4855C48.4417 41.6066 48.4221 41.7277 48.3948 41.8449C48.3401 42.0871 48.2659 42.3253 48.18 42.5558C48.1721 42.5793 48.1604 42.6066 48.1487 42.63C48.1526 42.6222 48.1839 42.5519 48.1565 42.6144C48.1292 42.673 48.1057 42.7316 48.0784 42.7863C48.0159 42.8957 47.9534 43.0089 47.8909 43.1183C47.7346 43.3918 47.8245 43.7589 48.1018 43.9191C48.3753 44.0793 48.7464 43.9855 48.9026 43.7082C50.012 41.7628 49.8909 39.2628 48.5237 37.4738C47.0589 35.5558 44.469 34.716 42.1721 35.5128C39.8909 36.3058 38.301 38.5089 38.3362 40.9386C38.3714 43.423 40.0745 45.6535 42.4729 46.3253C44.5979 46.923 47.0003 46.1847 48.3831 44.4543C48.5745 44.216 48.7503 43.9699 48.9026 43.7043C49.0628 43.4308 48.9651 43.0636 48.6917 42.9035C48.4182 42.7472 48.051 42.8449 47.8909 43.1183Z" fill="white"/>
<path d="M23.9807 44.716C23.7425 44.923 23.4807 45.1105 23.1956 45.2707C20.7659 46.6769 17.6604 45.8449 16.2581 43.4152C14.8557 40.9855 15.6878 37.88 18.1175 36.4777C18.3987 36.3136 18.6917 36.1808 18.9885 36.0793C21.2464 35.2941 23.8128 36.1925 25.051 38.3371C26.2932 40.4816 25.7893 43.1574 23.9807 44.716Z" fill="white"/>
<path d="M23.5667 44.3019C23.3596 44.4777 23.1175 44.6457 22.8518 44.7941C22.7503 44.8527 22.6448 44.9074 22.5354 44.9582C22.4846 44.9816 22.4378 45.005 22.387 45.0246C22.3245 45.0519 22.3948 45.0207 22.4026 45.0168C22.3596 45.0324 22.3206 45.048 22.2776 45.0636C22.055 45.1457 21.8245 45.216 21.5901 45.2668C21.4807 45.2902 21.3675 45.3097 21.2542 45.3293C21.3479 45.3214 21.1643 45.3449 21.2542 45.3293C21.2268 45.3332 21.2034 45.3371 21.1761 45.3371C21.1057 45.3449 21.0393 45.3488 20.969 45.3527C20.7386 45.3683 20.5042 45.3644 20.2737 45.3488C20.2151 45.3449 20.1526 45.3371 20.094 45.3332C19.9768 45.3214 20.1604 45.3449 20.0471 45.3254C19.93 45.3058 19.8128 45.2863 19.6956 45.2589C19.4612 45.2082 19.2307 45.1379 19.0081 45.0519C18.9612 45.0324 18.9104 45.0168 18.8636 44.9933C18.969 45.0363 18.8245 44.9738 18.7932 44.9582C18.6839 44.9074 18.5784 44.8527 18.4729 44.7941C18.2698 44.6808 18.0745 44.5519 17.887 44.4113C17.9768 44.4777 17.844 44.3761 17.8206 44.3566C17.7737 44.3175 17.7268 44.2785 17.68 44.2355C17.5901 44.1535 17.5003 44.0675 17.4143 43.9777C17.3362 43.8957 17.2581 43.8097 17.1839 43.7199C17.1682 43.7004 17.0628 43.5675 17.1253 43.6496C17.0862 43.5988 17.0511 43.548 17.012 43.4972C16.8714 43.2941 16.7425 43.0832 16.6292 42.8644C16.6018 42.8058 16.5745 42.7511 16.5471 42.6925C16.5354 42.6652 16.469 42.509 16.5081 42.6105C16.4612 42.4933 16.4182 42.3761 16.3792 42.259C16.305 42.0324 16.2503 41.8019 16.2112 41.5675C16.2034 41.5285 16.1839 41.3722 16.1995 41.4894C16.1917 41.4386 16.1878 41.3879 16.1839 41.3332C16.1721 41.2043 16.1643 41.0754 16.1643 40.9464C16.1604 40.7121 16.1761 40.4855 16.1995 40.2511C16.1878 40.3566 16.1995 40.2472 16.2073 40.2043C16.2151 40.1457 16.2268 40.0871 16.2386 40.0285C16.262 39.9113 16.2893 39.7941 16.3206 39.6808C16.3518 39.5754 16.3831 39.466 16.4182 39.3605C16.4378 39.3058 16.4573 39.2472 16.4807 39.1925C16.4886 39.1691 16.5003 39.1457 16.5081 39.1222C16.5471 39.0207 16.4886 39.1574 16.5198 39.0949C16.6175 38.884 16.7229 38.6769 16.844 38.4816C16.9026 38.3879 16.9651 38.2941 17.0315 38.2004C17.0511 38.173 17.1487 38.048 17.0823 38.13C17.1214 38.0832 17.1604 38.0363 17.1995 37.9894C17.3596 37.8019 17.5315 37.6261 17.719 37.4621C17.7581 37.4269 17.8011 37.3918 17.8401 37.3566C17.8518 37.3488 17.9378 37.2785 17.887 37.3175C17.8401 37.3566 17.9104 37.3019 17.9143 37.298C18.0159 37.2238 18.1214 37.1496 18.2268 37.0832C18.7034 36.7785 19.1487 36.5949 19.7034 36.4699C19.8206 36.4425 19.9339 36.423 20.0511 36.4035C20.0589 36.4035 20.1487 36.3918 20.0823 36.3996C20.0081 36.4074 20.1214 36.3957 20.1409 36.3957C20.2034 36.3879 20.2659 36.384 20.3284 36.38C20.5784 36.3644 20.8284 36.3644 21.0784 36.3879C21.1331 36.3918 21.1839 36.3996 21.2386 36.4035C21.262 36.4074 21.3518 36.4191 21.2425 36.4035C21.2698 36.4074 21.2971 36.4113 21.3206 36.4152C21.4417 36.4347 21.5667 36.4582 21.6878 36.4894C21.9221 36.5441 22.1487 36.6222 22.3753 36.7082C22.3948 36.716 22.4768 36.7511 22.3831 36.7121C22.4065 36.7238 22.4339 36.7355 22.4573 36.7433C22.5159 36.7707 22.5706 36.7941 22.6253 36.8254C22.7386 36.88 22.8479 36.9425 22.9573 37.005C23.0589 37.0636 23.1565 37.1261 23.2542 37.1925C23.2971 37.2238 23.344 37.255 23.387 37.2863C23.4612 37.341 23.3245 37.2355 23.3987 37.2941C23.4261 37.3175 23.4534 37.341 23.4846 37.3605C23.6761 37.5168 23.8557 37.6886 24.0198 37.8722C24.0628 37.9191 24.1057 37.9699 24.1487 38.0207C24.1643 38.0402 24.2698 38.173 24.2151 38.0988C24.2932 38.2043 24.3714 38.3136 24.4417 38.423C24.5823 38.6457 24.7073 38.88 24.8167 39.1222C24.844 39.1847 24.8206 39.13 24.8128 39.1183C24.8284 39.1535 24.8401 39.1886 24.8557 39.2277C24.8753 39.2824 24.8948 39.3371 24.9143 39.3918C24.9573 39.5168 24.9964 39.6457 25.0276 39.7785C25.0589 39.9074 25.0862 40.0363 25.1096 40.1691C25.1136 40.2004 25.1331 40.3332 25.1214 40.2355C25.1292 40.3097 25.137 40.3839 25.1448 40.4582C25.1643 40.7082 25.1643 40.9621 25.1487 41.2121C25.1448 41.2785 25.137 41.341 25.1331 41.4074C25.1214 41.5207 25.1448 41.3605 25.1253 41.4738C25.1018 41.6105 25.0784 41.7472 25.0471 41.8839C24.9886 42.1261 24.9104 42.3644 24.8206 42.5988C24.8206 42.6027 24.7854 42.6886 24.8089 42.63C24.8362 42.5675 24.7893 42.673 24.7815 42.6886C24.7581 42.7394 24.7346 42.7902 24.7112 42.841C24.6526 42.9582 24.5901 43.0714 24.5237 43.1847C24.4612 43.2902 24.3948 43.3918 24.3245 43.4894C24.3089 43.5129 24.219 43.6339 24.2386 43.6105C24.2737 43.5636 24.2151 43.6379 24.2151 43.6418C24.1839 43.6769 24.1565 43.716 24.1253 43.7511C23.9417 43.9504 23.7581 44.1339 23.5667 44.3019C23.3284 44.509 23.3518 44.9191 23.5667 45.13C23.805 45.3683 24.1565 45.3371 24.3948 45.13C26.2542 43.509 26.8089 40.8136 25.8284 38.5675C24.8948 36.4269 22.6018 35.048 20.2737 35.2238C17.8948 35.4035 15.8245 37.0715 15.1956 39.38C14.5862 41.6183 15.4339 44.0246 17.2776 45.4152C19.0589 46.7629 21.5628 46.8918 23.4925 45.7785C23.8128 45.5949 24.1136 45.3722 24.3948 45.13C24.637 44.923 24.6057 44.5129 24.3948 44.3019C24.1565 44.0636 23.8089 44.0988 23.5667 44.3019Z" fill="white"/>
</g>
<defs>
<clipPath id="clip0_698_783">
<rect width="65.2088" height="63.6923" fill="white"/>
</clipPath>
</defs>
</svg>
