<svg width="67" height="64" viewBox="0 0 67 64" fill="none" xmlns="http://www.w3.org/2000/svg">
<g clip-path="url(#clip0_698_972)">
<path d="M60.0658 7.62939e-05H6.98888C3.63875 7.62939e-05 0.922943 2.71589 0.922943 6.06601V57.6264C0.922943 60.9766 3.63875 63.6924 6.98888 63.6924H60.0658C63.4159 63.6924 66.1317 60.9766 66.1317 57.6264V6.06601C66.1317 2.71589 63.4159 7.62939e-05 60.0658 7.62939e-05Z" fill="white"/>
<path d="M20.9899 38.6129C20.9899 34.7475 23.9029 31.6105 27.4922 31.6105H33.9944V45.6154H27.4922C23.9029 45.6154 20.9899 42.4782 20.9899 38.6129Z" fill="#A259FF"/>
<path d="M46.8231 38.6129C46.8231 34.7475 43.9101 31.6105 40.3208 31.6105H33.8185V45.6154H40.3208C43.9101 45.6154 46.8231 42.4782 46.8231 38.6129Z" fill="#1ABCFE"/>
<path d="M20.9899 25.1072C20.9899 21.5179 23.9029 18.6049 27.4922 18.6049H33.9944V31.6094H27.4922C23.9029 31.6094 20.9899 28.6964 20.9899 25.1072Z" fill="#F24E1E"/>
<path d="M33.9955 18.6049H40.4977C44.087 18.6049 47 21.5179 47 25.1072C47 28.6964 44.087 31.6094 40.4977 31.6094H33.9955V18.6049Z" fill="#FF7262"/>
</g>
<defs>
<clipPath id="clip0_698_972">
<rect width="65.2088" height="63.6923" fill="white" transform="translate(0.923676)"/>
</clipPath>
</defs>
</svg>
