<?xml version="1.0" encoding="utf-8"?>
<!-- Generator: Adobe Illustrator 26.5.0, SVG Export Plug-In . SVG Version: 6.00 Build 0)  -->
<svg version="1.1" id="Layer_1" xmlns="http://www.w3.org/2000/svg" xmlns:xlink="http://www.w3.org/1999/xlink" x="0px" y="0px"
	 viewBox="0 0 38.6 34" style="enable-background:new 0 0 38.6 34;" xml:space="preserve">
<style type="text/css">
	.st0{fill:#FFFFFF;}
</style>
<g>
	<path class="st0" d="M28.4,29c0-2.7,2.2-4.8,4.8-4.8c2.7,0,4.8,2.2,4.8,4.8s-2.2,4.8-4.8,4.8S28.4,31.7,28.4,29"/>
	<path class="st0" d="M27.6,16.1c0,5.6-1.4,9.8-4.4,12.8s-7.2,4.5-12.6,4.5H0V0.1h11.2c5.3,0,9.3,1.3,12.1,4.1
		C26.2,6.9,27.6,10.9,27.6,16.1 M18.4,16.4c0-3.1-0.6-5.3-1.8-6.8c-1.1-1.4-3-2.2-5.4-2.2H8.8V26h2c2.7,0,4.6-0.8,5.9-2.4
		C17.8,22,18.4,19.6,18.4,16.4"/>
</g>
</svg>
