<svg width="118" height="22" viewBox="0 0 118 22" fill="none" xmlns="http://www.w3.org/2000/svg">
<path d="M-0.195312 17.7367L5.22739 1.19275H10.1369L15.5595 17.7367H11.9444L10.851 14.3326H4.51329L3.41982 17.7367H-0.195312ZM5.31665 11.6319H10.0476L8.66401 7.41089L7.74906 4.39256H7.61517L6.70022 7.41089L5.31665 11.6319Z" fill="white"/>
<path d="M21.6078 17.9411C20.4177 17.9411 19.3763 17.684 18.4837 17.1696C17.5911 16.64 16.8993 15.9063 16.4083 14.9683C15.9174 14.0151 15.6719 12.9107 15.6719 11.655C15.6719 10.3841 15.9174 9.27965 16.4083 8.3417C16.9142 7.38849 17.6208 6.65472 18.5283 6.1403C19.4358 5.61081 20.4995 5.34607 21.7194 5.34607C22.7459 5.34607 23.6609 5.54272 24.4642 5.93611C25.2677 6.32942 25.8999 6.87416 26.3611 7.57007C26.8371 8.26598 27.0975 9.07546 27.1421 9.99835H23.9287C23.8246 9.36291 23.5642 8.88635 23.1477 8.56858C22.7311 8.23574 22.2253 8.06933 21.6301 8.06933C20.7673 8.06933 20.1127 8.39463 19.6664 9.04514C19.2201 9.69574 18.9969 10.5657 18.9969 11.655C18.9969 12.8502 19.2349 13.7428 19.711 14.3329C20.202 14.9229 20.8342 15.2179 21.6078 15.2179C22.3071 15.2179 22.8575 15.0364 23.2592 14.6732C23.6758 14.3102 23.9139 13.8336 23.9733 13.2436H27.1644C27.1198 14.1967 26.8521 15.0288 26.3611 15.7398C25.885 16.4358 25.2379 16.9805 24.4196 17.3738C23.6014 17.752 22.6642 17.9411 21.6078 17.9411Z" fill="white"/>
<path d="M28.7363 17.737V5.57305H31.9051L32.0167 7.77435H32.1506C32.4481 6.97249 32.9316 6.36728 33.6011 5.95881C34.2706 5.55035 35.007 5.34607 35.8104 5.34607C36.6435 5.34607 37.4022 5.55035 38.0864 5.95881C38.7707 6.36728 39.2766 7.07081 39.6039 8.06932H39.7824C40.0651 7.1616 40.5634 6.48077 41.2775 6.02691C42.0065 5.57305 42.8248 5.34607 43.7323 5.34607C44.5059 5.34607 45.1977 5.51249 45.8076 5.84532C46.4176 6.17816 46.9011 6.71528 47.2581 7.45658C47.63 8.18281 47.816 9.15863 47.816 10.3841V17.737H44.5356V11.1103C44.5356 10.0815 44.3646 9.31751 44.0224 8.81825C43.6951 8.319 43.1595 8.06932 42.4156 8.06932C41.6271 8.06932 41.0098 8.36439 40.5634 8.95435C40.132 9.52932 39.9163 10.2025 39.9163 10.9742V17.737H36.636V11.1103C36.636 10.0815 36.465 9.31751 36.1228 8.81825C35.7955 8.319 35.2599 8.06932 34.516 8.06932C33.7127 8.06932 33.0953 8.36439 32.6639 8.95435C32.2324 9.52932 32.0167 10.2025 32.0167 10.9742V17.737H28.7363Z" fill="white"/>
<path d="M55.304 17.9411C54.0544 17.9411 52.9832 17.684 52.0905 17.1696C51.2128 16.6552 50.5359 15.9366 50.0598 15.0137C49.5837 14.0756 49.3457 12.9863 49.3457 11.7457C49.3457 10.4295 49.5837 9.29481 50.0598 8.3417C50.5508 7.38849 51.2351 6.65472 52.1128 6.1403C52.9906 5.61081 54.0171 5.34607 55.1925 5.34607C56.576 5.34607 57.7141 5.65621 58.6067 6.27649C59.4994 6.8817 60.139 7.72132 60.5259 8.79556C60.9127 9.85463 61.0391 11.0573 60.9052 12.4038H52.5815C52.5666 13.3721 52.8121 14.121 53.3179 14.6505C53.8238 15.165 54.4857 15.4222 55.304 15.4222C55.9288 15.4222 56.457 15.286 56.8885 15.0137C57.3348 14.7262 57.6174 14.3479 57.7364 13.879H60.8383C60.7342 14.6959 60.4292 15.407 59.9234 16.0122C59.4324 16.6173 58.7927 17.094 58.0042 17.4419C57.2158 17.7747 56.3157 17.9411 55.304 17.9411ZM55.1925 7.86505C54.4486 7.86505 53.8461 8.08449 53.3849 8.52319C52.9237 8.94681 52.6633 9.52932 52.6038 10.2706H57.6918C57.6471 9.4537 57.3868 8.84849 56.9107 8.45509C56.4496 8.06179 55.8768 7.86505 55.1925 7.86505Z" fill="white"/>
<path d="M74.4487 17.941C72.827 17.941 71.3989 17.6082 70.164 16.9425C68.9441 16.2767 67.992 15.3085 67.3078 14.0377C66.6234 12.7668 66.2812 11.2387 66.2812 9.45349C66.2812 7.66818 66.6234 6.14772 67.3078 4.892C67.992 3.62111 68.9441 2.65283 70.164 1.98716C71.3989 1.32149 72.827 0.988647 74.4487 0.988647C75.8471 0.988647 77.0893 1.23832 78.1754 1.73758C79.2614 2.22167 80.1391 2.91004 80.8086 3.80269C81.4781 4.68018 81.8872 5.70902 82.036 6.88911H78.5101C78.3167 6.04186 77.8555 5.35348 77.1265 4.8239C76.4124 4.27925 75.5198 4.00697 74.4487 4.00697C73.0502 4.00697 71.9345 4.46083 71.1013 5.36856C70.2831 6.27637 69.8739 7.63795 69.8739 9.45349C69.8739 11.2841 70.2831 12.6533 71.1013 13.5611C71.9345 14.4688 73.0502 14.9227 74.4487 14.9227C75.49 14.9227 76.3827 14.6579 77.1265 14.1285C77.8704 13.5989 78.3316 12.8953 78.5101 12.0179H82.036C81.9021 13.1979 81.4929 14.2343 80.8086 15.127C80.1243 16.0196 79.2316 16.7155 78.1307 17.2148C77.0447 17.699 75.8174 17.941 74.4487 17.941Z" fill="white"/>
<path d="M89.1592 17.9411C87.969 17.9411 86.9201 17.6916 86.0126 17.1923C85.1051 16.693 84.3985 15.9743 83.8926 15.0364C83.4017 14.0983 83.1562 12.9712 83.1562 11.655C83.1562 10.3993 83.3943 9.30235 83.8703 8.36439C84.3464 7.41119 85.0307 6.66988 85.9234 6.1403C86.816 5.61081 87.8945 5.34607 89.1592 5.34607C90.3493 5.34607 91.3907 5.59565 92.2833 6.095C93.1907 6.59425 93.8905 7.32039 94.3808 8.2736C94.8866 9.21156 95.14 10.3387 95.14 11.655C95.14 12.9107 94.9013 14.0151 94.4256 14.9683C93.95 15.9063 93.2648 16.64 92.373 17.1696C91.4948 17.684 90.4237 17.9411 89.1592 17.9411ZM89.1368 15.2406C89.9402 15.2406 90.5873 14.9456 91.0783 14.3556C91.5689 13.7655 91.815 12.8653 91.815 11.655C91.815 10.4446 91.5762 9.54439 91.1006 8.95435C90.6246 8.36439 89.9774 8.06933 89.1592 8.06933C88.3409 8.06933 87.6863 8.36439 87.1953 8.95435C86.7044 9.54439 86.4589 10.4446 86.4589 11.655C86.4589 12.8502 86.697 13.7503 87.173 14.3556C87.6639 14.9456 88.3185 15.2406 89.1368 15.2406Z" fill="white"/>
<path d="M96.7832 17.7365V5.57264H99.7515L99.886 7.52427H99.9976C100.265 6.73757 100.689 6.19292 101.269 5.89031C101.865 5.57264 102.541 5.41376 103.3 5.41376H103.969V8.54557H103.233C102.132 8.54557 101.336 8.79515 100.846 9.29441C100.354 9.77859 100.094 10.4745 100.064 11.3822V17.7365H96.7832Z" fill="white"/>
<path d="M105.252 21.5268V5.57305H108.421L108.533 7.68356H108.711C108.994 6.97249 109.462 6.40514 110.117 5.98151C110.787 5.55788 111.583 5.34607 112.505 5.34607C113.933 5.34607 115.086 5.87556 115.963 6.93463C116.856 7.97853 117.303 9.55202 117.303 11.655C117.303 13.7428 116.856 15.3162 115.963 16.3753C115.086 17.4343 113.933 17.9638 112.505 17.9638C111.583 17.9638 110.787 17.752 110.117 17.3284C109.462 16.8897 108.994 16.3223 108.711 15.6264H108.533V21.5268H105.252ZM111.277 15.2633C112.08 15.2633 112.721 14.9758 113.196 14.401C113.688 13.8109 113.933 12.8956 113.933 11.655C113.933 10.4143 113.688 9.50663 113.196 8.93174C112.721 8.3417 112.08 8.04663 111.277 8.04663C110.667 8.04663 110.161 8.19035 109.76 8.47779C109.358 8.76523 109.061 9.14346 108.867 9.61249C108.674 10.0663 108.577 10.5505 108.577 11.065V12.245C108.577 12.7594 108.674 13.2511 108.867 13.7201C109.061 14.174 109.358 14.5447 109.76 14.8321C110.161 15.1196 110.667 15.2633 111.277 15.2633Z" fill="white"/>
</svg>
