<svg width="116" height="113" viewBox="0 0 116 113" fill="none" xmlns="http://www.w3.org/2000/svg">
<path d="M104.966 0H11.0663C5.13955 0 0.334961 4.80458 0.334961 10.7313V101.948C0.334961 107.874 5.13955 112.679 11.0663 112.679H104.966C110.892 112.679 115.697 107.874 115.697 101.948V10.7313C115.697 4.80458 110.892 0 104.966 0Z" fill="#2681FF"/>
<path d="M68.9329 58.389C69.7348 59.2461 70.9842 59.1976 71.5292 58.1069L84.6792 31.7889C84.9229 31.3013 84.897 30.7221 84.6105 30.2582C84.3241 29.7944 83.818 29.5121 83.2731 29.5121L64.9601 29.5121C64.3607 29.4982 63.8094 29.8392 63.5538 30.382C59.605 38.5518 61.9974 50.9739 68.9329 58.389Z" fill="#FFDD22"/>
<path d="M59.2835 82.3254C66.6384 70.6647 66.1532 57.7501 61.3087 48.0543L52.4784 30.3818C52.2121 29.8488 51.6678 29.5121 51.0724 29.5121H32.7597C32.2148 29.5121 31.7087 29.7945 31.4223 30.2582C31.1357 30.7221 31.1099 31.3013 31.3536 31.7889C31.3536 31.7889 55.9898 81.1016 56.6095 82.3354C57.1637 83.44 58.5711 83.455 59.2835 82.3254Z" fill="white"/>
</svg>
