<svg width="29" height="12" viewBox="0 0 29 12" fill="none" xmlns="http://www.w3.org/2000/svg">
<path d="M1.5 6.24766C5.16667 2.41432 15.5 -4.25239 27.5 6.24765C22.6667 10.581 11.5 15.2477 1.5 6.24766Z" stroke="white"/>
<path d="M14 2.00012C16.2091 2.00012 18 4.01484 18 6.50012C17.9999 8.98535 16.2091 11.0001 14 11.0001C12.2156 11.0001 10.7047 9.68539 10.1895 7.87024C10.4373 7.9528 10.7113 8.00012 11 8.00012C12.1045 8.00012 12.9999 7.32849 13 6.50012C13 5.67169 12.1046 5.00012 11 5.00012C10.7114 5.00012 10.4373 5.04651 10.1895 5.12903C10.7049 3.31423 12.2158 2.00012 14 2.00012Z" fill="white"/>
</svg>
