<?xml version="1.0" encoding="utf-8"?>
<!-- Generator: Adobe Illustrator 26.5.0, SVG Export Plug-In . SVG Version: 6.00 Build 0)  -->
<svg version="1.1" id="Layer_1" xmlns="http://www.w3.org/2000/svg" xmlns:xlink="http://www.w3.org/1999/xlink" x="0px" y="0px"
	 viewBox="0 0 512 512" style="enable-background:new 0 0 512 512;" xml:space="preserve">
<style type="text/css">
	.st0{fill:#FFFFFF;}
</style>
<g transform="translate(0,0)">
	<path class="st0" d="M102.5,26l90,345.8L481.8,395L391.7,49.3L102.5,26z M83.6,27.6c-30.5,11.9-55.7,53.1-49.8,75.3l3.2,11.8
		c0.7-1.8,1.4-3.5,2.1-5.3c9.9-23.7,26.6-46.8,50.4-58.9L83.6,27.6z M94.4,69.2c-16.7,10-29.9,28.1-38,47.4
		c-5.2,12.6-8,25.6-8.8,36.5l64.8,235.3c0.3-0.5,0.6-1.1,0.9-1.7c10.6-19.3,27.8-37.7,51.1-48.5L94.4,69.2L94.4,69.2z M169.3,356.8
		c-17.7,9.1-31.1,23.7-39.6,39c-4.5,8.1-7.3,16.4-8.7,23.8l11.7,42.4l1.6,0.1c-3.8-27.5,11.4-60.5,41.2-81.1L169.3,356.8
		L169.3,356.8z M195.7,390.8c-32.6,17.3-46.5,52.4-41.8,72.9l289.8,24.5c-5.3-7.8-8.7-17.9-8.6-28.5l-22.4-9l46.3-7.3l-13.5-12.9
		c5.6-6.9,13.7-13,24.8-17.7L195.7,390.8L195.7,390.8z"/>
</g>
</svg>
