<?xml version="1.0" encoding="utf-8"?>
<!-- Generator: Adobe Illustrator 26.5.0, SVG Export Plug-In . SVG Version: 6.00 Build 0)  -->
<svg version="1.1" id="Layer_1" xmlns="http://www.w3.org/2000/svg" xmlns:xlink="http://www.w3.org/1999/xlink" x="0px" y="0px"
	 viewBox="0 0 590 618.2" style="enable-background:new 0 0 590 618.2;" xml:space="preserve">
<style type="text/css">
	.st0{fill:#FFFFFF;}
</style>
<g>
	<path class="st0" d="M111.8,408.1c0,17.3-4.9,30.5-14.8,39.7c-9.9,9.2-24.1,13.8-42.7,13.8H24.7V356.6h33c17.2,0,30.5,4.5,40,13.6
		C107.1,379.2,111.8,391.9,111.8,408.1 M88.7,408.7c0-22.6-10-33.9-29.9-33.9H46.9v68.4h9.6C78,443.3,88.7,431.7,88.7,408.7"/>
	<polygon class="st0" points="195.6,461.6 135.1,461.6 135.1,356.6 195.6,356.6 195.6,374.8 157.4,374.8 157.4,397.9 192.9,397.9 
		192.9,416.2 157.4,416.2 157.4,443.3 195.6,443.3 	"/>
	<path class="st0" d="M291.5,432.5c0,9.5-3.4,17-10.2,22.4c-6.8,5.5-16.3,8.2-28.5,8.2c-11.2,0-21.1-2.1-29.8-6.3v-20.7
		c7.1,3.2,13.1,5.4,18,6.7c4.9,1.3,9.4,1.9,13.5,1.9c4.9,0,8.6-0.9,11.2-2.8c2.6-1.9,3.9-4.6,3.9-8.3c0-2-0.6-3.9-1.7-5.5
		c-1.2-1.6-2.8-3.1-5.1-4.6c-2.2-1.5-6.8-3.9-13.6-7.1c-6.4-3-11.2-5.9-14.4-8.7c-3.2-2.8-5.8-6-7.7-9.7c-1.9-3.7-2.9-8-2.9-12.9
		c0-9.3,3.1-16.6,9.4-21.9c6.3-5.3,15-8,26.1-8c5.5,0,10.7,0.7,15.6,1.9c5,1.3,10.1,3.1,15.6,5.5l-7.2,17.3
		c-5.6-2.3-10.2-3.9-13.9-4.8c-3.7-0.9-7.3-1.4-10.8-1.4c-4.2,0-7.4,1-9.7,2.9c-2.3,2-3.4,4.5-3.4,7.7c0,2,0.5,3.7,1.4,5.1
		c0.9,1.5,2.4,2.9,4.3,4.2c2,1.4,6.7,3.8,14.1,7.4c9.8,4.7,16.6,9.4,20.2,14.1C289.7,419.8,291.5,425.6,291.5,432.5"/>
	<rect x="315.7" y="356.6" class="st0" width="22.3" height="105.1"/>
	<path class="st0" d="M407.4,402.6h41.7v54.5c-6.8,2.2-13.1,3.7-19.1,4.6c-6,0.9-12.1,1.3-18.3,1.3c-15.9,0-28-4.7-36.3-14
		c-8.4-9.3-12.5-22.7-12.5-40.1c0-17,4.8-30.2,14.6-39.7c9.7-9.5,23.1-14.2,40.4-14.2c10.8,0,21.2,2.2,31.2,6.5l-7.4,17.8
		c-7.7-3.8-15.6-5.8-23.9-5.8c-9.6,0-17.4,3.2-23.1,9.7c-5.8,6.5-8.7,15.2-8.7,26.1c0,11.4,2.3,20.1,7,26.1c4.7,6,11.5,9,20.4,9
		c4.6,0,9.4-0.5,14.2-1.4v-21.9h-19.9V402.6z"/>
	<path class="st0" d="M573.2,461.6h-28.3l-45.7-79.5h-0.6c0.9,14,1.4,24,1.4,30v49.4H480V356.6h28.1l45.6,78.7h0.5
		c-0.7-13.6-1.1-23.3-1.1-29v-49.7h20.1V461.6z"/>
	<path class="st0" d="M74.1,574.1l-10-25.6H31.9L22,574.1h-9.5l31.8-80.7h7.9l31.6,80.7H74.1z M61.2,540.1l-9.3-24.9
		c-1.2-3.1-2.5-7-3.7-11.6c-0.8,3.5-2,7.4-3.5,11.6l-9.5,24.9H61.2z"/>
	<path class="st0" d="M186.4,574.1h-9.2l-16.2-53.8c-0.8-2.4-1.6-5.4-2.6-9c-1-3.6-1.4-5.8-1.5-6.5c-0.8,4.8-2.1,10.1-3.8,15.9
		l-15.7,53.5H128l-21.4-80.4h9.9l12.7,49.6c1.8,7,3,13.3,3.8,18.9c1-6.7,2.5-13.3,4.4-19.7l14.4-48.9h9.9l15.1,49.3
		c1.8,5.7,3.2,12.1,4.5,19.2c0.7-5.2,2-11.5,4-19l12.6-49.5h9.9L186.4,574.1z"/>
	<path class="st0" d="M292.3,574.1l-10-25.6h-32.2l-9.9,25.6h-9.5l31.8-80.7h7.9l31.6,80.7H292.3z M279.4,540.1l-9.3-24.9
		c-1.2-3.1-2.5-7-3.7-11.6c-0.8,3.5-2,7.4-3.5,11.6l-9.5,24.9H279.4z"/>
	<path class="st0" d="M345,540.6v33.4h-9.3v-80.4h22c9.9,0,17.2,1.9,21.8,5.7c4.7,3.8,7.1,9.5,7.1,17c0,10.6-5.4,17.8-16.2,21.5
		l21.8,36.1h-11.1l-19.5-33.4H345z M345,532.6h12.8c6.6,0,11.4-1.3,14.5-3.9c3.1-2.6,4.6-6.5,4.6-11.8c0-5.3-1.6-9.2-4.7-11.5
		c-3.1-2.3-8.2-3.5-15.1-3.5H345V532.6z"/>
	<path class="st0" d="M493,533.1c0,13.3-3.6,23.4-10.8,30.4c-7.2,7-17.6,10.5-31.1,10.5h-22.3v-80.4h24.6c12.5,0,22.2,3.5,29.1,10.4
		C489.6,511,493,520.7,493,533.1 M483.1,533.4c0-10.5-2.6-18.4-7.9-23.7c-5.3-5.3-13.1-8-23.4-8h-13.6V566h11.4
		c11.1,0,19.5-2.7,25.1-8.2C480.3,552.3,483.1,544.2,483.1,533.4"/>
	<path class="st0" d="M577.4,552.7c0,7.1-2.6,12.6-7.7,16.5c-5.1,4-12.1,5.9-20.9,5.9c-9.5,0-16.9-1.2-22-3.7v-9
		c3.3,1.4,6.9,2.5,10.8,3.3c3.9,0.8,7.7,1.2,11.5,1.2c6.2,0,10.9-1.2,14.1-3.5c3.2-2.4,4.7-5.6,4.7-9.9c0-2.8-0.6-5.1-1.7-6.8
		c-1.1-1.8-3-3.4-5.6-4.9c-2.6-1.5-6.6-3.2-12-5.1c-7.5-2.7-12.8-5.9-16-9.5c-3.2-3.7-4.8-8.5-4.8-14.4c0-6.2,2.3-11.1,7-14.8
		c4.7-3.7,10.8-5.5,18.5-5.5c8,0,15.3,1.5,22,4.4l-2.9,8.1c-6.6-2.8-13.1-4.2-19.3-4.2c-4.9,0-8.8,1.1-11.6,3.2
		c-2.8,2.1-4.2,5.1-4.2,8.8c0,2.8,0.5,5.1,1.5,6.8c1,1.8,2.8,3.4,5.2,4.9c2.4,1.5,6.2,3.1,11.2,4.9c8.4,3,14.2,6.2,17.4,9.7
		C575.9,542.7,577.4,547.2,577.4,552.7"/>
	<path class="st0" d="M242.9,0v189.1c0,33.6-9.7,59.8-29.2,78.7c-19.4,18.9-46.6,28.4-81.3,28.4c-33.8,0-60.3-9.5-79.2-28.5
		c-19-19-28.5-45.5-28.5-79.4V0h20.6v189.1c0,28.1,7.8,50,23.4,65.6c15.6,15.7,37.6,23.5,66.2,23.5c27.8,0,49.4-7.7,64.7-23.1
		c15.3-15.4,23-36.7,23-64.1V0H242.9z"/>
	<polygon class="st0" points="415.7,147.1 290.3,272.6 304.9,287.2 430.3,161.7 	"/>
	<polygon class="st0" points="577.4,272.6 452,147.1 437.4,161.7 562.8,287.2 	"/>
	<polygon class="st0" points="430.4,125.5 304.9,0 290.3,14.7 415.8,140.1 	"/>
	<polygon class="st0" points="562.8,0 437.4,125.5 452,140.1 577.4,14.6 	"/>
</g>
</svg>
