<svg width="170" height="186" viewBox="0 0 170 186" fill="none" xmlns="http://www.w3.org/2000/svg">
<g clip-path="url(#clip0_2248_11069)">
<path d="M23.0795 45.9777C35.826 45.9777 46.159 35.6853 46.159 22.9889C46.159 10.2925 35.826 0 23.0795 0C10.333 0 0 10.2925 0 22.9889C0 35.6853 10.333 45.9777 23.0795 45.9777Z" fill="white"/>
<path d="M84.8002 45.9777C97.5467 45.9777 107.88 35.6853 107.88 22.9889C107.88 10.2925 97.5467 0 84.8002 0C72.0537 0 61.7207 10.2925 61.7207 22.9889C61.7207 35.6853 72.0537 45.9777 84.8002 45.9777Z" fill="white"/>
<path d="M23.0795 118.264C35.826 118.264 46.159 107.971 46.159 95.275C46.159 82.5786 35.826 72.2861 23.0795 72.2861C10.333 72.2861 0 82.5786 0 95.275C0 107.971 10.333 118.264 23.0795 118.264Z" fill="white"/>
<path d="M84.8002 118.264C97.5467 118.264 107.88 107.971 107.88 95.275C107.88 82.5786 97.5467 72.2861 84.8002 72.2861C72.0537 72.2861 61.7207 82.5786 61.7207 95.275C61.7207 107.971 72.0537 118.264 84.8002 118.264Z" fill="white"/>
<path d="M23.0795 185.533C35.826 185.533 46.159 175.241 46.159 162.545C46.159 149.848 35.826 139.556 23.0795 139.556C10.333 139.556 0 149.848 0 162.545C0 175.241 10.333 185.533 23.0795 185.533Z" fill="white"/>
<path d="M84.8002 185.533C97.5467 185.533 107.88 175.241 107.88 162.545C107.88 149.848 97.5467 139.556 84.8002 139.556C72.0537 139.556 61.7207 149.848 61.7207 162.545C61.7207 175.241 72.0537 185.533 84.8002 185.533Z" fill="white"/>
<path d="M146.32 118.264C159.066 118.264 169.399 107.971 169.399 95.275C169.399 82.5786 159.066 72.2861 146.32 72.2861C133.573 72.2861 123.24 82.5786 123.24 95.275C123.24 107.971 133.573 118.264 146.32 118.264Z" fill="white"/>
<path d="M37.7893 77.5282C37.7893 77.5282 54.8797 92.8042 70.5667 76.9541V113.297C70.5667 113.297 56.0073 98.2956 37.5137 112.997L37.7893 77.5282Z" fill="white"/>
<path d="M37.789 5.56628C37.789 5.56628 54.8543 20.8423 70.5163 4.99219V41.3351C70.5163 41.3351 55.9569 26.3336 37.4883 41.0355L37.7639 5.56628H37.789Z" fill="white"/>
<path d="M37.7893 144.573C37.7893 144.573 54.8797 159.849 70.5667 143.999V180.342C70.5667 180.342 56.0073 165.34 37.5137 180.042L37.7893 144.573Z" fill="white"/>
<path d="M99.3847 77.5282C99.3847 77.5282 116.475 92.8042 132.137 76.9541V113.297C132.137 113.297 117.578 98.2956 99.084 112.997L99.3596 77.5282H99.3847Z" fill="white"/>
</g>
<defs>
<clipPath id="clip0_2248_11069">
<rect width="169.4" height="185.533" fill="white"/>
</clipPath>
</defs>
</svg>
