<svg width="116" height="113" viewBox="0 0 116 113" fill="none" xmlns="http://www.w3.org/2000/svg">
<g clip-path="url(#clip0_614_833)">
<path d="M104.631 0H10.7313C4.80458 0 0 4.80458 0 10.7313V101.948C0 107.874 4.80458 112.679 10.7313 112.679H104.631C110.557 112.679 115.362 107.874 115.362 101.948V10.7313C115.362 4.80458 110.557 0 104.631 0Z" fill="#8E44EC"/>
<g clip-path="url(#clip1_614_833)">
<path d="M85.8503 53.2069H69.3758L83.6435 44.9695L80.5102 39.5409L66.2425 47.7783L74.4781 33.5118L69.0495 30.3767L60.8139 44.6432V28.1699H54.547V44.6448L46.3083 30.3767L40.8814 33.5102L49.1186 47.7768L34.8509 39.5409L31.7174 44.9679L45.9852 53.2054H29.5107V59.4725H45.9836L31.7174 67.7099L34.8509 73.1385L49.1171 64.9026L40.8798 79.1691L46.3083 82.3026L54.5455 68.0347V84.5095H60.8124V68.0362L69.048 82.3026L74.4763 79.1691L66.2393 64.9011L80.5069 73.1385L83.6405 67.7099L69.3743 59.474H85.847V53.2069H85.8503ZM57.6805 64.8631C52.9551 64.8631 49.1249 61.0331 49.1249 56.3074C49.1249 51.5818 52.9551 47.7516 57.6805 47.7516C62.4059 47.7516 66.236 51.5818 66.236 56.3074C66.236 61.0331 62.4059 64.8631 57.6805 64.8631Z" fill="white"/>
<circle cx="57.6807" cy="57.002" r="9.7959" fill="white"/>
</g>
</g>
<defs>
<clipPath id="clip0_614_833">
<rect width="115.362" height="112.679" fill="white"/>
</clipPath>
<clipPath id="clip1_614_833">
<rect width="56.3395" height="56.3395" fill="white" transform="translate(29.5107 28.1699)"/>
</clipPath>
</defs>
</svg>
