<?xml version="1.0" encoding="utf-8"?>
<!-- Generator: Adobe Illustrator 26.5.0, SVG Export Plug-In . SVG Version: 6.00 Build 0)  -->
<svg version="1.1" id="Capa_1" xmlns="http://www.w3.org/2000/svg" xmlns:xlink="http://www.w3.org/1999/xlink" x="0px" y="0px"
	 viewBox="0 0 800 800" style="enable-background:new 0 0 800 800;" xml:space="preserve">
<style type="text/css">
	.st0{fill:#FFFFFF;}
</style>
<g id="XMLID_23_">
	<path id="XMLID_474_" class="st0" d="M489.5,709.9c-28,9.9-58.1,15.3-89.5,15.3c-31.3,0-61.4-5.4-89.4-15.2
		c-11.1,18.1-25.1,34.4-41.5,48.1c40.2,17.4,84.4,27.1,131,27.1c46.5,0,90.8-9.7,130.9-27.1C514.3,744.1,500.5,727.8,489.5,709.9z"
		/>
	<path id="XMLID_475_" class="st0" d="M224.1,250.2c-10-18.4-17.2-38.6-21.1-60c-71.2,53.1-120.3,134.1-131,226.7
		c20-7.2,41.1-11.3,62.5-11.9C146.1,343.6,178.5,289.4,224.1,250.2z"/>
	<path id="XMLID_476_" class="st0" d="M665.5,405.1c21.3,0.6,42.4,4.6,62.5,11.9c-10.7-92.6-59.8-173.6-131-226.7
		c-3.8,21.3-11,41.5-21.1,60C621.5,289.4,653.9,343.6,665.5,405.1z"/>
	<circle id="XMLID_477_" class="st0" cx="400" cy="154.9" r="140.1"/>
	<path id="XMLID_478_" class="st0" d="M70.1,483.8c-67,38.7-89.9,124.3-51.3,191.3c25.9,44.9,73,70.1,121.4,70.1
		c23.8,0,47.8-6.1,69.9-18.8c67-38.7,89.9-124.3,51.3-191.3c-25.9-44.9-73-70.1-121.4-70.1C116.2,465,92.1,471.1,70.1,483.8z"/>
	<path id="XMLID_479_" class="st0" d="M538.6,535.1c-38.7,67-15.7,152.6,51.3,191.3c22.1,12.7,46.1,18.8,69.9,18.8
		c48.4,0,95.5-25.1,121.4-70.1c38.7-67,15.7-152.7-51.3-191.3C707.9,471.1,683.8,465,660,465C611.6,465,564.6,490.1,538.6,535.1z"/>
</g>
</svg>
