<?xml version="1.0" encoding="utf-8"?>
<!-- Generator: Adobe Illustrator 26.5.0, SVG Export Plug-In . SVG Version: 6.00 Build 0)  -->
<svg version="1.1" id="katman_1" xmlns="http://www.w3.org/2000/svg" xmlns:xlink="http://www.w3.org/1999/xlink" x="0px" y="0px"
	 viewBox="0 0 450.4 450" style="enable-background:new 0 0 450.4 450;" xml:space="preserve">
<style type="text/css">
	.st0{fill-rule:evenodd;clip-rule:evenodd;fill:#FFFFFF;}
</style>
<g id="Layer_1">
	<g id="Logo_Customers_Plum">
		<path id="Combined-Shape" class="st0" d="M263.1,34.3c-22,33.8-28.8,76-20.8,118.2c5,23.9,23.6,42.5,47.5,47.5
			c47.1,9.3,94-0.3,129.3-28.8c34.7,106.7-23.6,221.1-130,255.9S68,403.4,33.2,297s23.6-221.1,130-255.9c20.5-6.5,41.6-9.9,63-9.9
			C238.6,30.9,251,32.1,263.1,34.3z M282,291.7c-14.6,14.9-34.4,23-55.2,23.3c-20.8,0-40.6-8.4-55.2-23.3
			c-7.8-7.4-20.2-7.1-27.6,0.6c-7.1,7.4-7.1,19.2-0.3,27c45.6,45.6,119.4,45.6,164.7,0c0.3-0.3,0.3-0.3,0.6-0.6
			c7.4-7.4,7.4-19.5,0-27C301.5,284.3,289.4,284.3,282,291.7L282,291.7z M414.4,12.3c7.8,1.6,14,7.4,15.2,15.2
			c7.8,40-1.9,78.2-28.2,104.5s-64.5,36-104.5,28.2c-7.8-1.6-14-7.4-15.2-15.2c-7.4-40,2.2-78.5,28.2-104.5S374.4,4.5,414.4,12.3z
			 M337.5,67.5c-14.3,15.2-21.4,35.7-19.2,56.4c36.9,4.7,70.7-21.4,75.7-58.3c0.6-5.6,0.6-11.5,0-17.1
			C373.2,46.1,352.4,53.2,337.5,67.5z"/>
	</g>
</g>
</svg>
