<svg width="66" height="64" viewBox="0 0 66 64" fill="none" xmlns="http://www.w3.org/2000/svg">
<g clip-path="url(#clip0_698_825)">
<path d="M59.1427 0H6.06581C2.71569 0 -0.00012207 2.71581 -0.00012207 6.06593V57.6264C-0.00012207 60.9765 2.71569 63.6923 6.06581 63.6923H59.1427C62.4929 63.6923 65.2087 60.9765 65.2087 57.6264V6.06593C65.2087 2.71581 62.4929 0 59.1427 0Z" fill="#FFDD22"/>
<path d="M21.2918 23.1787L19.0043 21.2616C19.4019 21.0859 19.8335 20.996 20.2679 21.0001H44.2321C44.6651 20.9988 45.0954 21.0846 45.4957 21.2507L43.2082 23.1787L32.7183 31.9801C32.5985 32.1272 32.4187 32.213 32.2281 32.213C32.0375 32.213 31.8578 32.1272 31.738 31.9801L21.2918 23.1787ZM47.1077 22.7539L45.3213 24.268L34.1562 33.6139C33.6469 34.104 32.9689 34.3818 32.2608 34.3873C31.5282 34.3764 30.8284 34.0877 30.3001 33.5812L19.1786 24.2677L17.3921 22.7536C17.1402 23.2193 17.0068 23.7381 17 24.2677V39.5177C17 41.3219 18.4637 42.7856 20.2679 42.7856H44.2321C46.0363 42.7856 47.5 41.3219 47.5 39.5177V24.2677C47.4973 23.7381 47.3623 23.2182 47.1077 22.7539Z" fill="#222222"/>
</g>
<defs>
<clipPath id="clip0_698_825">
<rect width="65.2088" height="63.6923" fill="white"/>
</clipPath>
</defs>
</svg>
