<svg width="66" height="64" viewBox="0 0 66 64" fill="none" xmlns="http://www.w3.org/2000/svg">
<g clip-path="url(#clip0_698_934)">
<path d="M59.1428 7.62939e-05H6.06587C2.71575 7.62939e-05 -6.10352e-05 2.71589 -6.10352e-05 6.06601V57.6264C-6.10352e-05 60.9766 2.71575 63.6924 6.06587 63.6924H59.1428C62.4929 63.6924 65.2087 60.9766 65.2087 57.6264V6.06601C65.2087 2.71589 62.4929 7.62939e-05 59.1428 7.62939e-05Z" fill="#03363D"/>
<path d="M28.7478 19.3152C28.7478 18.1875 29.1958 17.1059 29.9933 16.3085C30.7907 15.511 31.8722 15.063 33 15.063C34.1277 15.063 35.2093 15.511 36.0067 16.3085C36.8042 17.1059 37.2522 18.1875 37.2522 19.3152V20.3783H38.3152V19.3152C38.3152 17.9055 37.7552 16.5536 36.7584 15.5568C35.7616 14.56 34.4097 14 33 14C31.5903 14 30.2384 14.56 29.2416 15.5568C28.2448 16.5536 27.6848 17.9055 27.6848 19.3152V20.3783H28.7478V19.3152Z" fill="#5E8E3E"/>
<path d="M45.0921 20.8885C45.0856 20.7516 45.0268 20.6224 44.928 20.5275C44.8291 20.4326 44.6976 20.3792 44.5606 20.3783H38.3152V22.5043C38.3152 22.6453 38.2592 22.7805 38.1595 22.8802C38.0598 22.9799 37.9246 23.0359 37.7837 23.0359C37.6427 23.0359 37.5075 22.9799 37.4078 22.8802C37.3082 22.7805 37.2522 22.6453 37.2522 22.5043V20.3783H28.7478V22.5043C28.7478 22.6453 28.6918 22.7805 28.5921 22.8802C28.4925 22.9799 28.3573 23.0359 28.2163 23.0359C28.0753 23.0359 27.9401 22.9799 27.8405 22.8802C27.7408 22.7805 27.6848 22.6453 27.6848 22.5043V20.3783H21.4394C21.3024 20.3792 21.1709 20.4326 21.072 20.5275C20.9732 20.6224 20.9144 20.7516 20.9079 20.8885L20.0043 40.8312C19.9798 41.3474 20.0603 41.8631 20.2411 42.3473C20.4219 42.8314 20.6991 43.2737 21.056 43.6475C21.4128 44.0212 21.8419 44.3186 22.3171 44.5216C22.7923 44.7246 23.3039 44.8289 23.8206 44.8282H42.1794C42.6961 44.8289 43.2076 44.7246 43.6829 44.5216C44.1581 44.3186 44.5872 44.0212 44.944 43.6475C45.3009 43.2737 45.5781 42.8314 45.7589 42.3473C45.9397 41.8631 46.0202 41.3474 45.9957 40.8312L45.0921 20.8885Z" fill="#95BF47"/>
</g>
<defs>
<clipPath id="clip0_698_934">
<rect width="65.2088" height="63.6923" fill="white"/>
</clipPath>
</defs>
</svg>
