<?xml version="1.0" encoding="utf-8"?>
<!-- Generator: Adobe Illustrator 26.5.0, SVG Export Plug-In . SVG Version: 6.00 Build 0)  -->
<svg version="1.1" id="Layer_1" xmlns="http://www.w3.org/2000/svg" xmlns:xlink="http://www.w3.org/1999/xlink" x="0px" y="0px"
	 viewBox="0 0 590 618.2" style="enable-background:new 0 0 590 618.2;" xml:space="preserve">
<style type="text/css">
	.st0{fill:#FFFFFF;}
</style>
<g id="tCPph4.tif">
	<g>
		<path class="st0" d="M90.6,382.6c0-57.9-0.1-115.8,0-173.8c0.2-92.7,61.8-169.3,153.5-184.8c45.4-7.7,92.4-8.6,137.4,6.3
			c72.1,23.9,121.8,90.5,125,166.1c2.6,62.4-0.7,123.7-27.5,181.8c-36.4,78.9-88.3,143.3-168,182.2c-32.8,16-67.8,23.5-104.4,23.4
			c-33.8-0.1-67.6-0.1-101.4-0.1c-14.7,0-14.7,0-14.7-14.3C90.6,507.3,90.6,445,90.6,382.6z M106.7,567c3.9,0.3,6.1,0.7,8.2,0.7
			c34.5,0,69.1,0.9,103.6-0.4c17-0.6,34.4-3.6,50.8-8.3c62.6-17.7,109.9-57.2,148.8-107.8c59.1-77,80.9-164.2,72.4-260.2
			c-6-67.2-51.1-126.9-115.8-146c-47-13.9-95.6-13.8-142.6-2.1c-75,18.6-125,85.8-125.2,163.8c-0.3,116.2-0.1,232.3-0.1,348.5
			C106.7,558.7,106.7,562.3,106.7,567z"/>
		<path class="st0" d="M106.7,567c0-4.7,0-8.3,0-11.9c0-116.2-0.2-232.3,0.1-348.5c0.2-78,50.2-145.2,125.2-163.8
			c47.1-11.7,95.7-11.7,142.6,2.1c64.7,19.1,109.9,78.8,115.8,146c8.5,96-13.2,183.2-72.4,260.2c-38.9,50.6-86.2,90.1-148.8,107.8
			c-16.4,4.7-33.8,7.6-50.8,8.3c-34.5,1.3-69,0.4-103.6,0.4C112.8,567.7,110.7,567.4,106.7,567z M296.2,180.4
			c-13.1-38.1-37.5-60.3-76-63.3c-50-3.8-92.2,47.9-82.5,98.9c8.1,42.4,43.7,72.2,83.7,69c11.7-1,23.7-1.4,35.2,0.3
			c8.2,1.2,16.5,5.2,23.4,9.8c7,4.7,12.5,11.9,20.6,19.8c17.1-33.1,46.1-30.9,75.4-30.4c45.7,0.8,78.6-28.8,84.7-74.2
			c5.4-40-19.8-77.9-59.8-90.1c-38.8-11.8-80.5,6.7-97.9,43.4C300.7,168.6,298.9,173.7,296.2,180.4z"/>
		<path class="st0" d="M406.9,203c-0.1,14.6-12.8,27.6-27.2,27.6c-14,0-27.4-13.3-27.7-27.5c-0.2-14.9,13.1-28.2,28-27.9
			C394.6,175.6,407,188.3,406.9,203z"/>
		<path class="st0" d="M195.2,202.7c0.1-14.5,12.9-27.4,27.2-27.4c14.7,0,27.7,13.4,27.3,28.4c-0.3,14.3-13.7,27.4-27.8,27
			C207.7,230.3,195.1,217.1,195.2,202.7z"/>
	</g>
</g>
</svg>
